<?xml version="1.0" encoding="iso-8859-1"?>
<!-- Generator: Adobe Illustrator 16.0.0, SVG Export Plug-In . SVG Version: 6.00 Build 0)  -->
<!DOCTYPE svg PUBLIC "-//W3C//DTD SVG 1.1//EN" "http://www.w3.org/Graphics/SVG/1.1/DTD/svg11.dtd">
<svg version="1.1" id="Calque_1" xmlns="http://www.w3.org/2000/svg" xmlns:xlink="http://www.w3.org/1999/xlink" x="0px" y="0px"
	 width="160.174px" height="158.771px" viewBox="0 0 160.174 158.771" style="enable-background:new 0 0 160.174 158.771;"
	 xml:space="preserve">
<g id="women_6_2_">
	<g>
		<defs>
			<path id="SVGID_1_" d="M194.904,60.863c0-41.947-34.004-75.946-75.951-75.946c-41.946,0-75.946,34-75.946,75.946
				c0,41.946,34,75.947,75.946,75.947C160.9,136.811,194.904,102.81,194.904,60.863z"/>
		</defs>
		<clipPath id="SVGID_2_">
			<use xlink:href="#SVGID_1_"  style="overflow:visible;"/>
		</clipPath>
		<g style="clip-path:url(#SVGID_2_);">
			<path style="fill:#87181A;" d="M119.095,116.717H91.922c0,0-12.536-12.116-6.27-30.092c6.27-17.977,11.702-25.081,12.124-44.308
				c18.808,0,21.318,0,21.318,0V116.717z"/>
			<path style="fill:#87181A;" d="M118.393,116.717h27.172c0,0,12.537-12.116,6.271-30.092
				c-6.271-17.977-11.708-25.081-12.126-44.308c-18.807,0-21.316,0-21.316,0V116.717z"/>
			<path style="fill:#87181A;" d="M152.334,34.173c0-18.358-14.885-33.24-33.239-33.24c-18.361,0-33.243,14.882-33.243,33.24
				s14.882,33.24,33.243,33.24C137.449,67.413,152.334,52.531,152.334,34.173z"/>
			<polygon style="fill:#EAC8AD;" points="130.216,105.357 118.953,136.944 107.973,105.357 107.973,80.965 130.216,80.965 			"/>
			<g>
				<path style="fill:#F2D7BC;" d="M119.095,13.374c-10.804,0-27.88,6.14-27.88,34.909c0,16.608,6.478,24.44,8.831,27.45
					c2.178,2.771,13.319,11.719,19.049,11.719C119.095,58.379,119.095,13.374,119.095,13.374z"/>
				<path style="fill:#F2D7BC;" d="M85.844,55.142c-0.475-4.598,1.712-8.675,4.892-9.111c3.177-0.437,6.14,2.937,6.613,7.534
					c0.479,4.595-1.712,8.672-4.89,9.108C89.279,63.107,86.32,59.736,85.844,55.142z"/>
			</g>
			<g>
				<g>
					<g>
						<path style="fill:#F2D7BC;" d="M117.37,13.38c10.798,0,29.512,6.134,29.512,34.903c0,16.608-6.472,24.44-8.831,27.45
							c-2.172,2.771-14.956,11.724-20.681,11.724C117.37,58.758,117.37,58.758,117.37,13.38z"/>
					</g>
					<g>
						<path style="fill:#F2D7BC;" d="M152.343,55.142c0.479-4.598-1.716-8.675-4.89-9.111c-3.18-0.437-6.139,2.937-6.619,7.534
							c-0.473,4.595,1.717,8.672,4.89,9.108C148.909,63.107,151.863,59.736,152.343,55.142z"/>
					</g>
				</g>
			</g>
			<path style="fill:#87181A;" d="M118.728,6.409c-0.517-0.066-1.06-0.11-1.64-0.116c0,0-18.238,1.363-23.314,25.119
				c-2.438,1.828-6.905,8.936-1.014,16.854c0.809-6.697,3.261-11.555,7.512-13.403c7.531-3.277,10.633-0.23,19.365-6.931
				c5.101-3.913,6.932-11.783,5.803-16.178C123.418,6.293,118.237,6.495,118.728,6.409z"/>
			<path style="fill:#87181A;" d="M124.287,13.008c0,0-6.573,24.526,22.133,34.799C153.295,25.354,140.732,10.709,124.287,13.008z"
				/>
			<polygon style="fill:#FAEA27;" points="91.596,59.896 89.809,61.683 91.596,63.471 93.389,61.683 			"/>
			<polygon style="fill:#FAEA27;" points="146.966,59.896 145.178,61.683 146.966,63.471 148.76,61.683 			"/>
			<path style="fill:#2B8FC6;" d="M118.953,136.944v-30.382c0,0-8.786-0.402-10.125-8.772c-0.527-3.305-0.855-5.827-0.855-5.827
				s-18.144,6.133-22.193,12.464c-3.369,10.026-4.293,32.518-4.293,32.518H118.953z"/>
			<path style="fill:#39A3D8;" d="M118.536,136.811v-30.382c0,0,8.018-2.137,10.125-8.772c1.047-3.297,1.138-5.729,1.138-5.729
				s17.858,6.035,21.907,12.366c3.376,10.026,4.297,32.518,4.297,32.518H118.536z"/>
			<path style="fill:#FFFFFF;" d="M119.095,77.321c4.21,0,7.62-2.583,7.62-5.771h-15.244
				C111.471,74.738,114.884,77.321,119.095,77.321z"/>
		</g>
	</g>
</g>
<path style="fill:none;stroke:#454545;stroke-width:4;stroke-linecap:round;stroke-linejoin:round;stroke-miterlimit:10;" d="
	M88.384,39.395c0-18.001,13.5-32.595,30.152-32.595c16.653,0,30.152,14.594,30.152,32.595"/>
<path style="fill:#454545;" d="M86.77,39.294c0,0-0.794-0.002,3.209,0c0,0,2.962-0.787,3.982,3.982c0,0,0.479,9.684,0,15.102
	c0,0,0.271,4.297-5.979,3.982c0,0-3.439-0.373-5.095-3.094c0,0-5.142-1.908-5.148-8.439c0,0,0.054-6.344,5.148-8.438
	C82.887,42.39,83.981,39.294,86.77,39.294z"/>
<path style="fill:#454545;" d="M151.143,39.294c0,0,0.794-0.002-3.209,0c0,0-2.962-0.787-3.982,3.982c0,0-0.479,9.684,0,15.102
	c0,0-0.271,4.297,5.979,3.982c0,0,3.439-0.373,5.095-3.094c0,0,5.142-1.908,5.148-8.439c0,0-0.054-6.344-5.148-8.438
	C155.025,42.39,153.931,39.294,151.143,39.294z"/>
<path style="fill:none;stroke:#454545;stroke-width:3;stroke-linecap:round;stroke-miterlimit:10;" d="M89.808,60.395
	c0.462,2.221,4.106,12.255,18.162,14.476"/>
<ellipse style="fill:#454545;" cx="111.636" cy="74.871" rx="5.333" ry="3.4"/>
<g id="men_2_2_">
	<g>
		<defs>
			<path id="SVGID_3_" d="M131.72,76.041c0-87.737-36.871-82.738-82.732-82.738C3.29-6.698-33.75,30.345-33.75,76.041
				c0,45.692,37.04,82.731,82.738,82.731C94.681,158.771,131.72,121.732,131.72,76.041z"/>
		</defs>
		<clipPath id="SVGID_4_">
			<use xlink:href="#SVGID_3_"  style="overflow:visible;"/>
		</clipPath>
		<g style="clip-path:url(#SVGID_4_);">
			<rect x="36.871" y="96.908" style="fill:#F2D7BC;" width="24.229" height="26.562"/>
			<path style="fill:#C0D0D8;" d="M36.871,112.846c0,0-25.977,3.262-29.376,6.803c-2.962,3.084-9.125,32.639-10.546,39.123
				c40.442,0,52.034,0,52.034,0l-0.496-37.592L36.871,112.846z"/>
			<path style="fill:#C0D0D8;" d="M61.32,113.014c0,0,25.758,3.094,29.161,6.635c2.964,3.084,9.12,32.639,10.54,39.123
				c-40.44,0-53.202-0.01-53.202-0.01l0.668-37.582L61.32,113.014z"/>
			<g>
				<path style="fill:#F2D7BC;" d="M46.799,21.251c11.759,0,32.557,6.319,32.557,37.655c0,18.099-5.901,29.951-8.472,33.23
					c-2.363,3.016-17.919,10.209-23.488,9.322C47.396,69.794,46.799,21.251,46.799,21.251z"/>
				<path style="fill:#F2D7BC;" d="M85.207,66.381c0.52-5.005-1.871-9.453-5.331-9.926c-3.46-0.477-6.688,3.2-7.201,8.21
					c-0.521,5.005,1.859,9.446,5.324,9.92C81.459,75.058,84.688,71.391,85.207,66.381z"/>
			</g>
			<g>
				<path style="fill:#F2D7BC;" d="M48.988,20.881c-11.765,0-30.372,6.688-30.372,38.025c0,18.099,5.9,29.951,8.47,33.23
					c2.366,3.016,15.664,9.438,21.902,9.438C48.988,69.912,48.988,20.881,48.988,20.881z"/>
				<path style="fill:#F2D7BC;" d="M12.766,66.381c-0.518-5.005,1.868-9.453,5.331-9.926c3.462-0.477,6.688,3.2,7.205,8.21
					c0.52,5.005-1.869,9.446-5.329,9.92C16.514,75.058,13.288,71.391,12.766,66.381z"/>
			</g>
			<polygon style="fill:#FFFFFF;" points="39.483,172.154 27.186,167.205 24.157,170.289 30.273,183.855 			"/>
			<polygon style="fill:#FFFFFF;" points="39.483,172.154 51.786,167.205 54.811,170.289 48.701,183.855 			"/>
			<rect x="22.336" y="145.285" style="fill:#8097A3;" width="15.349" height="3.387"/>
			<rect x="60.297" y="145.285" style="fill:#8097A3;" width="15.352" height="3.387"/>
			<path style="fill:#8C603D;" d="M22.659,66.929h2.097c0,0-1.271-8.159,2.469-10.795c0-4.081,0-5.273,0-5.273
				s-1.447-0.167-1.447-6.374c0-6.207,7.396-10.628,23.21-10.628c0-8.839,0-19.04,0-19.04s-31.255,3.374-31.255,26.055
				c0,9.423,0,15.6,0,15.6s2.278-0.404,3.906,0.965C23.396,58.912,22.659,66.929,22.659,66.929z"/>
			<path style="fill:#8C603D;" d="M75.013,66.929h-2.097c0,0,1.276-8.159-2.46-10.795c0-4.081,0-5.273,0-5.273
				s1.443-0.167,1.443-6.374c0-6.207-8.059-10.621-23.872-10.621c0-8.84,0.294-18.959,0.294-18.959s30.081-0.311,31.618,25.968
				c0,9.423,0,15.6,0,15.6s-2.275-0.404-3.904,0.965C74.28,58.912,75.013,66.929,75.013,66.929z"/>
		</g>
	</g>
</g>
<path style="fill:none;stroke:#8F2C19;stroke-linecap:round;stroke-miterlimit:10;" d="M39.052,86.507c0,0,2.032,1.616,9.936,1.577
	c0,0,4.075,0.145,9.789-1.577"/>
</svg>
