<?xml version="1.0" encoding="iso-8859-1"?>
<!-- Generator: Adobe Illustrator 16.0.0, SVG Export Plug-In . SVG Version: 6.00 Build 0)  -->
<!DOCTYPE svg PUBLIC "-//W3C//DTD SVG 1.1//EN" "http://www.w3.org/Graphics/SVG/1.1/DTD/svg11.dtd">
<svg version="1.1" id="Calque_1" xmlns="http://www.w3.org/2000/svg" xmlns:xlink="http://www.w3.org/1999/xlink" x="0px" y="0px"
	 width="87px" height="87px" viewBox="0 0 87 87" style="enable-background:new 0 0 87 87;" xml:space="preserve">
<path style="fill:#444444;" d="M23.69,35.428h8.941v28.725H23.69V35.428z M28.164,21.148c2.859,0,5.177,2.321,5.177,5.175
	c0,2.857-2.318,5.178-5.177,5.178c-2.87,0-5.182-2.32-5.182-5.178C22.982,23.469,25.294,21.148,28.164,21.148"/>
<path style="fill:#444444;" d="M38.237,35.428h8.563v3.926h0.121c1.191-2.26,4.107-4.64,8.454-4.64
	c9.038,0,10.71,5.946,10.71,13.683v15.756h-8.925V50.188c0-3.334-0.065-7.62-4.644-7.62c-4.648,0-5.357,3.628-5.357,7.374v14.212
	h-8.923V35.428z"/>
<circle style="fill:none;stroke:#444444;stroke-miterlimit:10;" cx="43.597" cy="43.604" r="42.458"/>
</svg>
