<?xml version="1.0" encoding="iso-8859-1"?>
<!-- Generator: Adobe Illustrator 16.0.0, SVG Export Plug-In . SVG Version: 6.00 Build 0)  -->
<!DOCTYPE svg PUBLIC "-//W3C//DTD SVG 1.1//EN" "http://www.w3.org/Graphics/SVG/1.1/DTD/svg11.dtd">
<svg version="1.1" id="Calque_1" xmlns="http://www.w3.org/2000/svg" xmlns:xlink="http://www.w3.org/1999/xlink" x="0px" y="0px"
	 width="178.744px" height="188.575px" viewBox="0 0 178.744 188.575" style="enable-background:new 0 0 178.744 188.575;"
	 xml:space="preserve">
<g id="men_2">
	<g>
		<defs>
			<path id="SVGID_1_" d="M132.592,63.469C130.374,0.773,95.721-19.269,49.86-19.269c-45.698,0-82.737,37.043-82.737,82.738
				c0,45.691,37.039,82.731,82.737,82.731C95.553,146.201,134.209,109.132,132.592,63.469z"/>
		</defs>
		<clipPath id="SVGID_2_">
			<use xlink:href="#SVGID_1_"  style="overflow:visible;"/>
		</clipPath>
		<g style="clip-path:url(#SVGID_2_);">
			<rect x="37.743" y="84.336" style="fill:#F2D7BC;" width="24.229" height="26.563"/>
			<path style="fill:#C0D0D8;" d="M37.743,100.275c0,0-25.977,3.262-29.376,6.802c-2.963,3.084-9.125,32.639-10.547,39.124
				c40.443,0,52.035,0,52.035,0l-0.496-37.592L37.743,100.275z"/>
			<path style="fill:#C0D0D8;" d="M62.192,100.442c0,0,25.759,3.095,29.162,6.635c2.963,3.084,9.119,32.639,10.539,39.124
				c-40.44,0-53.202-0.011-53.202-0.011l0.668-37.581L62.192,100.442z"/>
			<g>
				<path style="fill:#F2D7BC;" d="M47.672,8.679c11.759,0,32.557,6.319,32.557,37.656c0,18.099-5.902,29.95-8.472,33.23
					c-2.363,3.015-17.919,10.209-23.487,9.321C48.27,57.223,47.672,8.679,47.672,8.679z"/>
				<path style="fill:#F2D7BC;" d="M86.081,53.81c0.52-5.006-1.873-9.453-5.332-9.927c-3.459-0.477-6.688,3.2-7.201,8.21
					c-0.521,5.006,1.859,9.446,5.324,9.921C82.333,62.487,85.559,58.82,86.081,53.81z"/>
			</g>
			<g>
				<path style="fill:#F2D7BC;" d="M49.86,8.31c-11.765,0-30.372,6.688-30.372,38.025c0,18.099,5.9,29.95,8.471,33.23
					c2.365,3.015,15.664,9.438,21.901,9.438C49.86,57.34,49.86,8.31,49.86,8.31z"/>
				<path style="fill:#F2D7BC;" d="M13.639,53.81c-0.518-5.006,1.867-9.453,5.33-9.927c3.463-0.477,6.688,3.2,7.205,8.21
					c0.521,5.006-1.869,9.446-5.328,9.921C17.387,62.487,14.16,58.82,13.639,53.81z"/>
			</g>
			<polygon style="fill:#FFFFFF;" points="40.355,159.583 28.059,154.633 25.029,157.717 31.146,171.284 			"/>
			<polygon style="fill:#FFFFFF;" points="40.355,159.583 52.658,154.633 55.684,157.717 49.574,171.284 			"/>
			<rect x="23.209" y="132.714" style="fill:#8097A3;" width="15.348" height="3.386"/>
			<rect x="61.17" y="132.714" style="fill:#8097A3;" width="15.352" height="3.386"/>
			<path style="fill:#8C603D;" d="M23.531,54.358h2.098c0,0-1.271-8.159,2.469-10.795c0-4.081,0-5.273,0-5.273
				s-1.447-0.167-1.447-6.374c0-6.206,7.396-10.627,23.21-10.627c0-8.84,0-19.04,0-19.04S18.605,5.623,18.605,28.303
				c0,9.423,0,15.601,0,15.601s2.277-0.404,3.906,0.965C24.269,46.341,23.531,54.358,23.531,54.358z"/>
			<path style="fill:#8C603D;" d="M75.886,54.358h-2.097c0,0,1.276-8.159-2.46-10.795c0-4.081,0-5.273,0-5.273
				s1.443-0.167,1.443-6.374c0-6.206-8.059-10.621-23.872-10.621c0-8.84,0.294-18.959,0.294-18.959s30.082-0.311,31.619,25.968
				c0,9.423,0,15.601,0,15.601s-2.275-0.404-3.904,0.965C75.152,46.341,75.886,54.358,75.886,54.358z"/>
			<path style="fill:#FFFFFF;" d="M49.86,75.512c5.481,0,9.93-1.814,9.93-4.043H39.933C39.933,73.698,44.377,75.512,49.86,75.512z"
				/>
		</g>
	</g>
</g>
<g>
	
		<image style="overflow:visible;opacity:0.53;" width="684" height="580" xlink:href="A4EED5F084F7B57B.png"  transform="matrix(0.24 0 0 0.24 21.1094 59.4263)">
	</image>
	<g>
		<g>
			<g>
				<circle style="fill:#3199D2;stroke:#FFFFFF;stroke-width:4;stroke-miterlimit:10;" cx="87.602" cy="123.919" r="46.492"/>
				<path style="fill:#9AC31C;" d="M106.176,123.878c0-15.149,12.893-27.408,28.566-27.408c15.152,0,26.301,12.259,26.301,27.408
					c0,15.151-12.283,27.435-27.434,27.435S106.176,139.03,106.176,123.878z"/>
				<path style="fill:none;stroke:#FFFFFF;stroke-width:4;stroke-miterlimit:10;" d="M115.602,141.732
					c4.635,4.869,10.941,7.555,18.195,7.555c14.67,0,25.445-10.944,25.445-25.445c0-14.623-11.943-25.446-24.723-25.446
					c-10.27,0-21.395,5.171-25.182,18.106"/>
			</g>
			<g>
				
					<image style="overflow:visible;opacity:0.75;" width="53" height="64" xlink:href="A4EED5F084F7B57E.png"  transform="matrix(0.24 0 0 0.24 67.9351 106.4175)">
				</image>
				<g>
					<path style="fill:#EDE650;" d="M70.954,117.681c0,0,2.841-0.175,4.764-2.971c0,0,1.865-2.928,0.306-6.293
						c0,0-3.568,0-5.438,2.93C70.586,111.347,68.9,114.695,70.954,117.681z"/>
				</g>
			</g>
			<rect x="70.998" y="120.406" style="fill:#FFFFFF;" width="2.913" height="16.78"/>
			<path style="fill:#FFFFFF;" d="M78.165,120.406c0,0,1.924-0.029,2.754,0c0,0,0,1.428,0,2.17c0,0,1.18-2.972,5.418-2.84
				c0,0,3.365-0.132,5.025,2.84c0,0,1.312-2.936,5.508-2.844c0,0,5.199,0.091,5.725,5.51c0,0,0,10.254,0,11.944
				c0,0-1.967,0.058-3.453,0c0,0,0-9.935-0.043-11.856c0,0-0.088-2.666-3.496-2.842c0,0-3.277,0.219-3.496,2.797
				c0,0,0,10.22,0,11.928c0,0-2.012,0.04-3.541,0c0,0,0.088-11.01,0.045-11.928c0,0-0.35-2.84-3.365-2.752
				c0,0-3.408-0.045-3.625,3.32c0,0,0.041,9.556-0.002,11.377c0,0-1.924,0.014-3.453,0C78.165,137.23,78.165,121.6,78.165,120.406z"
				/>
			<path style="fill:#FFFFFF;" d="M121.516,129.13c0.043-8.303-7.43-8.725-7.43-8.725c-1.398,0.015-7.91,0-7.91,0
				c0.045,1.238,0,25.2,0,25.2c0.875,0,3.453,0,3.453,0c0.043-1.354,0.043-8.37,0.043-8.37c1.529,0.854,3.58,0.637,3.58,0.637
				C121.774,137.218,121.516,129.13,121.516,129.13z M117.961,128.796c-0.23,6.895-5.418,6.293-5.418,6.293
				c-1.719,0.232-2.914-0.641-2.914-0.641c0-0.991,0-11.246,0-11.246c0.934,0.031,2.797,0,2.797,0
				C118.137,123.377,117.961,128.796,117.961,128.796z"/>
			<path style="fill:#FFFFFF;" d="M123.497,109.218c0,0,2.447,0,3.555,0c0,0,0,22.258,0,23.133c0,0-0.117,2.505,2.738,2.039
				c0,0-0.232,0.008,0.584,0.004c0,0,0,1.859,0,2.792c0,0-1.633,0.099-2.391,0.05c0,0-4.486,0.359-4.486-5.234
				C123.497,132.001,123.497,111.083,123.497,109.218z"/>
			<rect x="133.286" y="120.406" style="fill:#FFFFFF;" width="2.914" height="16.83"/>
			<circle style="fill:#FFFFFF;" cx="134.724" cy="114.871" r="2.079"/>
			<path style="fill:#FFFFFF;" d="M148.028,125.3c0,0,1.34,0,2.506,0c0,0-0.232-5.012-5.826-4.895c0,0-5.537,0.175-5.537,5.011
				c0,0,0,3.731,3.205,4.778c0,0,2.797,0.99,4.43,1.398c0,0,1.164,0.262,1.223,1.412c0,0,0.467,2.666-3.322,2.492
				c0,0-2.912,0.232-3.088-3.089c0,0-1.865,0-2.738,0c0,0,0.059,5.478,5.826,5.478c0,0,5.943,0.378,6.236-4.881
				c0,0,0.582-4.523-6.293-5.199c0,0-2.973-0.176-2.973-2.447c0,0,0-2.564,3.24-2.681C144.917,122.678,147.969,122.62,148.028,125.3
				z"/>
			<path style="fill:#FFFFFF;" d="M58.646,105.431c0,0,3.321-0.012,6.176,2.098c0,0,0,3.03,0,3.729c0,0-2.454-2.732-6.213-2.875
				c0,0-5.243,0-5.848,4.649c0,0-0.699,4.109,3.787,5.975c0,0,9.967,2.833,9.964,10.605c0,0,0.408,7.623-8.508,8.623
				c0,0-4.544,0.349-7.866-2.447c0,0,0-1.924,0-3.672c0,0,2.799,3.609,8.042,3.146c0,0,4.72-0.35,5.477-5.302
				c0,0,0.816-4.661-7.691-7.808c0,0-6.409-1.748-6.118-8.682C49.847,113.472,49.613,105.419,58.646,105.431z"/>
		</g>
	</g>
</g>
</svg>
