<?xml version="1.0" encoding="utf-8"?>
<!-- Generator: Adobe Illustrator 16.0.0, SVG Export Plug-In . SVG Version: 6.00 Build 0)  -->
<!DOCTYPE svg PUBLIC "-//W3C//DTD SVG 1.1//EN" "http://www.w3.org/Graphics/SVG/1.1/DTD/svg11.dtd">
<svg version="1.1" id="Calque_1" xmlns="http://www.w3.org/2000/svg" xmlns:xlink="http://www.w3.org/1999/xlink" x="0px" y="0px"
	 width="140px" height="94px" viewBox="0 0 140 94" enable-background="new 0 0 140 94" xml:space="preserve">
<g id="women_6_2_">
	<g>
		<defs>
			<circle id="SVGID_1_" cx="25.292" cy="35.921" r="45.22"/>
		</defs>
		<clipPath id="SVGID_2_">
			<use xlink:href="#SVGID_1_"  overflow="visible"/>
		</clipPath>
		<g clip-path="url(#SVGID_2_)">
			<path fill="#87181A" d="M25.374,69.176H9.196c0,0-7.465-7.214-3.734-17.917c3.734-10.703,6.968-14.933,7.219-26.381
				c11.198,0,12.693,0,12.693,0V69.176z"/>
			<path fill="#87181A" d="M24.956,69.176h16.178c0,0,7.465-7.214,3.734-17.917c-3.734-10.703-6.972-14.933-7.221-26.381
				c-11.197,0-12.691,0-12.691,0V69.176z"/>
			<circle fill="#87181A" cx="25.373" cy="20.029" r="19.792"/>
			<polygon fill="#EAC8AD" points="31.996,62.412 25.29,81.22 18.752,62.412 18.752,47.889 31.996,47.889 			"/>
			<g>
				<path fill="#F2D7BC" d="M25.374,7.646c-6.433,0-16.6,3.655-16.6,20.785c0,9.888,3.856,14.552,5.258,16.344
					c1.297,1.65,7.931,6.978,11.342,6.978C25.374,34.441,25.374,7.646,25.374,7.646z"/>
				<path fill="#F2D7BC" d="M5.576,32.515c-0.282-2.737,1.02-5.166,2.913-5.425c1.892-0.261,3.654,1.747,3.938,4.485
					c0.285,2.735-1.021,5.163-2.911,5.423C7.622,37.257,5.859,35.25,5.576,32.515z"/>
			</g>
			<g>
				<g>
					<g>
						<path fill="#F2D7BC" d="M24.348,7.648c6.429,0,17.571,3.652,17.571,20.782c0,9.888-3.854,14.552-5.258,16.344
							c-1.294,1.65-8.905,6.98-12.313,6.98C24.348,34.667,24.348,34.667,24.348,7.648z"/>
					</g>
					<g>
						<path fill="#F2D7BC" d="M45.17,32.515c0.286-2.737-1.021-5.166-2.911-5.425c-1.893-0.261-3.655,1.747-3.941,4.485
							c-0.281,2.735,1.022,5.163,2.912,5.423C43.126,37.257,44.885,35.25,45.17,32.515z"/>
					</g>
				</g>
			</g>
			<path fill="#87181A" d="M25.155,3.498c-0.308-0.04-0.631-0.065-0.977-0.069c0,0-10.858,0.812-13.882,14.956
				c-1.451,1.089-4.11,5.32-0.604,10.035c0.482-3.987,1.942-6.88,4.474-7.98c4.484-1.951,6.33-0.137,11.529-4.127
				c3.037-2.329,4.128-7.015,3.455-9.632C27.948,3.429,24.863,3.55,25.155,3.498z"/>
			<path fill="#87181A" d="M28.466,7.427c0,0-3.914,14.604,13.178,20.72C45.737,14.777,38.257,6.059,28.466,7.427z"/>
			
				<rect x="8.248" y="35.656" transform="matrix(0.7071 -0.7071 0.7071 0.7071 -23.1085 17.0285)" fill="#FAEA27" width="1.505" height="1.505"/>
			
				<rect x="41.216" y="35.656" transform="matrix(0.7071 -0.7071 0.7071 0.7071 -13.4525 40.3402)" fill="#FAEA27" width="1.505" height="1.505"/>
			<path fill="#2B8FC6" d="M25.29,81.22V63.13c0,0-5.231-0.239-6.028-5.223c-0.314-1.968-0.51-3.47-0.51-3.47
				S7.949,58.089,5.538,61.858C3.531,67.828,2.981,81.22,2.981,81.22H25.29z"/>
			<path fill="#39A3D8" d="M25.042,81.14V63.051c0,0,4.773-1.272,6.028-5.224c0.623-1.963,0.677-3.411,0.677-3.411
				s10.633,3.593,13.044,7.363c2.01,5.969,2.559,19.36,2.559,19.36H25.042z"/>
			<path fill="#FFFFFF" d="M25.374,45.72c2.507,0,4.537-1.538,4.537-3.436h-9.076C20.835,44.182,22.867,45.72,25.374,45.72z"/>
		</g>
	</g>
</g>
<g>
	<path fill="none" stroke="#454545" stroke-width="4" stroke-linecap="round" stroke-linejoin="round" stroke-miterlimit="10" d="
		M6.493,22.543c0-10.718,8.038-19.407,17.953-19.407s17.953,8.689,17.953,19.407"/>
	<path fill="#454545" d="M5.532,22.483c0,0-0.473-0.001,1.91,0c0,0,1.764-0.469,2.371,2.371c0,0,0.286,5.766,0,8.991
		c0,0,0.162,2.559-3.56,2.371c0,0-2.048-0.222-3.033-1.842c0,0-3.062-1.136-3.065-5.025c0,0,0.031-3.776,3.065-5.023
		C3.221,24.326,3.872,22.483,5.532,22.483z"/>
	<path fill="#454545" d="M43.86,22.483c0,0,0.473-0.001-1.911,0c0,0-1.763-0.469-2.371,2.371c0,0-0.285,5.766,0,8.991
		c0,0-0.161,2.559,3.561,2.371c0,0,2.048-0.222,3.033-1.842c0,0,3.062-1.136,3.065-5.025c0,0-0.032-3.776-3.065-5.023
		C46.172,24.326,45.521,22.483,43.86,22.483z"/>
	<path fill="none" stroke="#454545" stroke-width="3" stroke-linecap="round" stroke-miterlimit="10" d="M7.341,35.046
		c0.275,1.322,2.445,7.297,10.814,8.619"/>
	<ellipse fill="#454545" cx="20.338" cy="43.665" rx="3.176" ry="2.024"/>
</g>
<g>
	<g id="men_3">
		<g>
			<defs>
				<path id="SVGID_3_" d="M158.876,37.455c0-24.974-20.241-45.221-45.219-45.221c-24.976,0-45.219,20.247-45.219,45.221
					c0,24.973,20.243,45.218,45.219,45.218C138.635,82.673,158.876,62.428,158.876,37.455z"/>
			</defs>
			<clipPath id="SVGID_4_">
				<use xlink:href="#SVGID_3_"  overflow="visible"/>
			</clipPath>
			<g clip-path="url(#SVGID_4_)">
				<g>
					<path fill="#2B2E35" d="M121.887,57.514c0,0,12.59,1.84,14.446,3.775c1.62,1.686,4.987,17.842,5.769,21.384
						c-22.105,0-28.444,0-28.444,0V59.738L121.887,57.514z"/>
					<rect x="107.038" y="49.156" fill="#F2D7BC" width="13.239" height="14.523"/>
					<g>
						<path fill="#F2D7BC" d="M112.072,6.943c6.427,0,18.247,4.006,18.247,21.134c0,9.891-3.227,16.368-4.63,18.163
							c-1.293,1.647-10.209,4.808-13.617,4.808C112.072,33.74,112.072,6.943,112.072,6.943z"/>
						<path fill="#F2D7BC" d="M133.455,32.176c0.283-2.736-1.024-5.165-2.913-5.426c-1.895-0.259-3.654,1.749-3.94,4.488
							c-0.285,2.733,1.021,5.164,2.913,5.421C131.406,36.92,133.167,34.913,133.455,32.176z"/>
					</g>
					<g>
						<path fill="#F2D7BC" d="M113.657,7.309c-6.435,0-16.599,3.655-16.599,20.783c0,9.891,3.225,16.368,4.628,18.162
							c1.293,1.648,8.56,5.158,11.971,5.158C113.657,34.104,113.657,7.309,113.657,7.309z"/>
						<path fill="#F2D7BC" d="M93.859,32.176c-0.282-2.736,1.018-5.165,2.913-5.426c1.895-0.259,3.655,1.749,3.937,4.488
							c0.286,2.733-1.017,5.164-2.909,5.421C95.909,36.92,94.142,34.913,93.859,32.176z"/>
					</g>
					<path fill="#663212" d="M104.995,10.806c0,0-5.613,6.665-3.466,12.879c0.363,7.406-0.358,9.915-2.745,11.947
						c0.598-7.169-0.117-9.559-2.751-8.724C94.961,21.294,97.277,6.167,104.995,10.806z"/>
					<path fill="#663212" d="M122.271,10.806c0,0,5.616,6.665,3.468,12.879c-0.359,7.406,0.357,9.915,2.747,11.947
						c-0.599-7.169,0.12-9.559,2.747-8.724C132.31,21.294,129.99,6.167,122.271,10.806z"/>
					<path fill="#30353B" d="M105.429,57.514c0,0-12.59,1.84-14.451,3.775c-1.616,1.686-4.986,17.842-5.763,21.384
						c22.105,0,28.442,0,28.442,0V59.738L105.429,57.514z"/>
					<polyline fill="#B9C7D0" points="122.038,57.177 113.657,58.893 105.277,57.177 113.657,82.673 					"/>
					<polygon fill="#2AA692" points="112.959,62.332 111.592,79.577 113.657,82.673 115.725,79.577 114.353,62.332 					"/>
					<path fill="#3A404C" d="M107.615,68.182l-6.665-9.884c1.823-0.661,3.784-1.156,5.84-1.493l6.867,25.868l-9.628-13.783
						L107.615,68.182z"/>
					<path fill="#3A404C" d="M119.7,68.182l6.665-9.884c-1.823-0.661-3.783-1.156-5.844-1.493l-6.864,25.868l9.63-13.783
						L119.7,68.182z"/>
					<path fill="#2AA692" d="M115.916,61.228l-2.259,2.328l-2.259-2.328l2.259-2.332L115.916,61.228z"/>
					<polygon fill="#FFFFFF" points="113.657,58.893 120.381,55.491 123.847,57.514 116.646,63.264 					"/>
					<polygon fill="#FFFFFF" points="113.657,58.893 106.935,55.491 103.468,57.514 110.545,63.264 					"/>
				</g>
				<path fill="#663212" d="M129.521,13.729c-2.648-10.868-18.761-19.409-30.083-2.346c-0.729,3.366,2.434,4.944,2.434,4.944
					s2.114-4.944,11.811-2.662c4.824-1.055,9.527-1.841,11.697,2.623C127.554,20.749,129.521,13.729,129.521,13.729z"/>
				<path fill="#87181A" d="M123.167,44.121c-3.326,0-5.7-2.699-9.513-2.699s-6.192,2.699-9.515,2.699
					c-3.638,0-5.936-6.281-6.626-8.483c0.938,6.339,3.091,10.485,4.17,11.865c1.293,1.65,8.561,5.161,11.971,5.165l0,0l0,0
					c3.41-0.004,10.678-3.515,11.972-5.165c1.08-1.38,3.232-5.53,4.176-11.871C129.109,37.827,126.816,44.121,123.167,44.121z"/>
				<path fill="#FFFFFF" d="M113.657,47.094c1.118,0,2.025-0.468,2.025-1.053h-4.054C111.629,46.626,112.539,47.094,113.657,47.094z
					"/>
			</g>
		</g>
	</g>
	<g>
		<path fill="none" stroke="#444444" stroke-width="2" stroke-miterlimit="10" d="M111.573,32.219c0,0.986-0.8,1.786-1.786,1.786
			h-7.74c-0.986,0-1.786-0.8-1.786-1.786v-4.565c0-0.986,0.8-1.786,1.786-1.786h7.74c0.986,0,1.786,0.8,1.786,1.786V32.219z"/>
		<path fill="none" stroke="#444444" stroke-width="2" stroke-miterlimit="10" d="M127.054,32.219c0,0.986-0.8,1.786-1.786,1.786
			h-7.74c-0.986,0-1.786-0.8-1.786-1.786v-4.565c0-0.986,0.8-1.786,1.786-1.786h7.74c0.986,0,1.786,0.8,1.786,1.786V32.219z"/>
		<line fill="none" stroke="#444444" stroke-width="2" stroke-miterlimit="10" x1="111.573" y1="29.937" x2="115.741" y2="29.937"/>
	</g>
</g>
<g id="men_2_4_">
	<g>
		<defs>
			<path id="SVGID_5_" d="M118.523,44.639c0-39.035-21.954-49.264-49.26-49.264c-27.209,0-49.262,22.056-49.262,49.264
				c0,27.204,22.053,49.258,49.262,49.258C96.47,93.896,118.523,71.843,118.523,44.639z"/>
		</defs>
		<clipPath id="SVGID_6_">
			<use xlink:href="#SVGID_5_"  overflow="visible"/>
		</clipPath>
		<g clip-path="url(#SVGID_6_)">
			<rect x="62.049" y="57.062" fill="#F2D7BC" width="14.427" height="15.816"/>
			<path fill="#C0D0D8" d="M62.049,66.553c0,0-15.466,1.941-17.49,4.05c-1.765,1.836-5.433,19.433-6.28,23.294
				c24.081,0,30.982,0,30.982,0l-0.295-22.382L62.049,66.553z"/>
			<path fill="#C0D0D8" d="M76.606,66.652c0,0,15.337,1.842,17.362,3.95c1.765,1.836,5.431,19.433,6.276,23.294
				c-24.079,0-31.678-0.006-31.678-0.006l0.398-22.376L76.606,66.652z"/>
			<g>
				<path fill="#F2D7BC" d="M67.961,12.016c7.001,0,19.384,3.763,19.384,22.421c0,10.776-3.514,17.833-5.044,19.786
					c-1.407,1.795-10.669,6.078-13.984,5.55C68.316,40.919,67.961,12.016,67.961,12.016z"/>
				<path fill="#F2D7BC" d="M90.829,38.887c0.31-2.98-1.114-5.628-3.174-5.91c-2.061-0.283-3.982,1.905-4.288,4.889
					c-0.31,2.98,1.107,5.624,3.17,5.906C88.598,44.053,90.52,41.87,90.829,38.887z"/>
			</g>
			<g>
				<path fill="#F2D7BC" d="M69.264,11.796c-7.005,0-18.084,3.982-18.084,22.641c0,10.776,3.514,17.833,5.044,19.786
					c1.408,1.795,9.326,5.619,13.04,5.619C69.264,40.989,69.264,11.796,69.264,11.796z"/>
				<path fill="#F2D7BC" d="M47.697,38.887c-0.309-2.98,1.111-5.628,3.174-5.91c2.062-0.283,3.981,1.905,4.29,4.889
					c0.31,2.98-1.113,5.624-3.173,5.906C49.929,44.053,48.008,41.87,47.697,38.887z"/>
			</g>
			<polygon fill="#FFFFFF" points="63.604,101.865 56.283,98.918 54.479,100.754 58.121,108.831 			"/>
			<polygon fill="#FFFFFF" points="63.604,101.865 70.93,98.918 72.731,100.754 69.094,108.831 			"/>
			<rect x="53.396" y="85.867" fill="#8097A3" width="9.138" height="2.016"/>
			<rect x="75.997" y="85.867" fill="#8097A3" width="9.141" height="2.016"/>
			<path fill="#8C603D" d="M53.587,39.213h1.249c0,0-0.757-4.857,1.47-6.427c0-2.43,0-3.14,0-3.14s-0.861-0.1-0.861-3.796
				c0-3.694,4.404-6.327,13.819-6.327c0-5.263,0-11.336,0-11.336S50.654,10.196,50.654,23.7c0,5.61,0,9.289,0,9.289
				s1.356-0.241,2.326,0.574C54.026,34.44,53.587,39.213,53.587,39.213z"/>
			<path fill="#8C603D" d="M84.76,39.213h-1.249c0,0,0.76-4.857-1.465-6.427c0-2.43,0-3.14,0-3.14s0.859-0.1,0.859-3.796
				c0-3.694-4.798-6.323-14.213-6.323c0-5.264,0.175-11.288,0.175-11.288S86.777,8.054,87.692,23.7c0,5.61,0,9.289,0,9.289
				s-1.354-0.241-2.324,0.574C84.323,34.44,84.76,39.213,84.76,39.213z"/>
			<path fill="#FFFFFF" d="M69.264,51.809c3.264,0,5.912-1.08,5.912-2.407H63.353C63.353,50.729,65.999,51.809,69.264,51.809z"/>
		</g>
	</g>
</g>
</svg>
