<?xml version="1.0" encoding="utf-8"?>
<!-- Generator: Adobe Illustrator 16.0.0, SVG Export Plug-In . SVG Version: 6.00 Build 0)  -->
<!DOCTYPE svg PUBLIC "-//W3C//DTD SVG 1.1//EN" "http://www.w3.org/Graphics/SVG/1.1/DTD/svg11.dtd">
<svg version="1.1" id="Calque_1" xmlns="http://www.w3.org/2000/svg" xmlns:xlink="http://www.w3.org/1999/xlink" x="0px" y="0px"
	 width="190px" height="193.813px" viewBox="0 0 190 193.813" enable-background="new 0 0 190 193.813" xml:space="preserve">
<g>
	<g id="men_4">
		<g>
			<defs>
				<circle id="SVGID_1_" cx="95.05" cy="36.274" r="53.425"/>
			</defs>
			<clipPath id="SVGID_2_">
				<use xlink:href="#SVGID_1_"  overflow="visible"/>
			</clipPath>
			<g clip-path="url(#SVGID_2_)">
				<path fill="#2E404E" d="M104.869,59.973c0,0,14.875,2.174,17.07,4.462c1.914,1.993,5.891,21.078,6.811,25.267
					c-26.115,0-33.604,0-33.604,0v-28.92L104.869,59.973z"/>
				<rect x="87.324" y="49.749" fill="#DAA88D" width="15.646" height="17.155"/>
				<g>
					<path fill="#DAA88D" d="M95.146,0.659c7.596,0,19.611,4.317,19.611,24.554c0,11.683-3.809,19.337-5.469,21.455
						c-1.527,1.948-13.232,5.586-17.262,5.586C92.027,31.802,95.146,0.659,95.146,0.659z"/>
					<path fill="#DAA88D" d="M118.537,30.037c0.334-3.233-1.207-6.102-3.441-6.409c-2.236-0.307-4.318,2.066-4.654,5.3
						s1.207,6.102,3.441,6.408S118.201,33.271,118.537,30.037z"/>
				</g>
				<g>
					<path fill="#DAA88D" d="M95.148,0.659c-7.598,0-19.611,4.317-19.611,24.554c0,11.683,3.811,19.337,5.469,21.455
						c1.527,1.948,10.113,6.101,14.143,6.101C95.148,32.316,95.148,0.659,95.148,0.659z"/>
					<path fill="#DAA88D" d="M71.76,30.037c-0.336-3.233,1.205-6.102,3.439-6.409c2.236-0.307,4.318,2.066,4.654,5.3
						s-1.205,6.102-3.441,6.408C74.178,35.643,72.094,33.271,71.76,30.037z"/>
				</g>
				<path fill="#E6E7E9" d="M84.916,4.89c0,0-6.635,7.872-4.094,15.213c0.424,8.752-0.424,11.716-3.246,14.115
					c0.705-8.469-0.141-11.292-3.246-10.305C73.059,17.279,75.799-0.593,84.916,4.89z"/>
				<path fill="#E6E7E9" d="M105.326,4.89c0,0,6.637,7.872,4.094,15.213c-0.422,8.752,0.424,11.716,3.248,14.115
					c-0.705-8.469,0.141-11.292,3.246-10.305C117.186,17.279,114.443-0.593,105.326,4.89z"/>
				<path fill="#354750" d="M85.426,59.973c0,0-14.875,2.174-17.072,4.462c-1.912,1.993-5.889,21.078-6.811,25.267
					c26.117,0,33.604,0,33.604,0v-28.92L85.426,59.973z"/>
				<polyline fill="#B9C7D0" points="105.049,59.574 95.146,60.781 85.248,59.574 95.146,89.701 				"/>
				<polygon fill="#B73D41" points="94.139,63.689 92.158,84.064 95.148,89.701 98.137,84.064 96.158,63.689 				"/>
				<path fill="#222B30" d="M88.01,72.578l-7.873-11.679c2.156-0.78,4.469-1.368,6.9-1.763l8.111,30.564L83.775,73.418L88.01,72.578
					z"/>
				<path fill="#222B30" d="M102.287,72.578l7.875-11.679c-2.156-0.78-4.471-1.368-6.904-1.763l-8.109,30.564l11.373-16.283
					L102.287,72.578z"/>
				<path fill="#B73D41" d="M97.818,63.521l-2.67,2.671l-2.67-2.671l2.67-2.671L97.818,63.521z"/>
				<polygon fill="#FFFFFF" points="95.146,60.781 87.205,57.586 85.248,59.574 89.199,68.339 				"/>
				<polygon fill="#FFFFFF" points="95.146,60.781 103.092,57.586 105.049,59.574 101.096,68.339 				"/>
				<polygon fill="#5C3015" points="95.236,40.271 95.236,42.179 89.43,43.43 88.219,43.43 				"/>
				<polygon fill="#5C3015" points="95.176,40.271 95.176,42.179 100.982,43.43 102.193,43.43 				"/>
			</g>
		</g>
	</g>
	<g id="women_1_1_">
		<g id="women_1">
			<defs>
				<circle id="SVGID_3_" cx="129.696" cy="87.145" r="51.349"/>
			</defs>
			<clipPath id="SVGID_4_">
				<use xlink:href="#SVGID_3_"  overflow="visible"/>
			</clipPath>
			<g clip-path="url(#SVGID_4_)">
				<g>
					<g>
						<g>
							<g>
								<circle fill="#492C1C" cx="129.697" cy="69.101" r="22.475"/>
								<polygon fill="#F2D7BC" points="137.217,117.227 129.602,138.585 122.178,117.227 122.178,100.738 137.217,100.738 								
									"/>
								<g>
									<path fill="#F2D7BC" d="M129.697,55.039c-7.301,0-18.848,4.149-18.848,23.6c0,11.23,4.377,16.524,5.973,18.561
										c1.467,1.871,9.002,7.924,12.875,7.924C129.697,85.467,129.697,55.039,129.697,55.039z"/>
									<path fill="#F2D7BC" d="M107.217,83.276c-0.322-3.107,1.16-5.865,3.307-6.16c2.148-0.294,4.152,1.985,4.475,5.094
										c0.32,3.107-1.16,5.864-3.309,6.159C109.541,88.663,107.539,86.383,107.217,83.276z"/>
								</g>
								<g>
									<g>
										<g>
											<path fill="#F2D7BC" d="M129.697,55.134c7.301,0,18.846,4.149,18.846,23.6c0,11.23-4.375,16.524-5.971,18.561
												c-1.469,1.871-10.217,7.668-14.09,7.668C128.482,85.306,129.697,55.134,129.697,55.134z"/>
										</g>
										<g>
											<path fill="#F2D7BC" d="M152.178,83.276c0.32-3.107-1.16-5.865-3.307-6.16c-2.15-0.294-4.152,1.985-4.475,5.094
												c-0.322,3.107,1.16,5.864,3.309,6.159C149.852,88.663,151.855,86.383,152.178,83.276z"/>
										</g>
									</g>
								</g>
								<path fill="#EAC8AD" d="M129.602,138.585v-20.54c0,0-5.609-1.391-6.846-5.934c-0.594-2.184-0.578-3.937-0.578-3.937
									s-12.266,4.143-15.006,8.423c-2.277,6.782-2.902,21.987-2.902,21.987H129.602z"/>
								<path fill="#EAC8AD" d="M129.602,138.585v-20.54c0,0,5.609-1.391,6.848-5.934c0.594-2.184,0.576-3.937,0.576-3.937
									s12.268,4.143,15.006,8.423c2.277,6.782,2.902,21.987,2.902,21.987H129.602z"/>
								<path fill="#EAC8AD" d="M129.602,138.585v-20.54c0,0-5.609-1.391-6.846-5.934c-0.594-2.184-0.578-3.937-0.578-3.937
									s-12.266,4.143-15.006,8.423c-2.277,6.782-2.902,21.987-2.902,21.987H129.602z"/>
								<path fill="#EAC8AD" d="M129.602,138.585v-20.54c0,0,5.609-1.391,6.848-5.934c0.594-2.184,0.576-3.937,0.576-3.937
									s12.268,4.143,15.006,8.423c2.277,6.782,2.902,21.987,2.902,21.987H129.602z"/>
								<path fill="#FFFFFF" d="M129.697,98.273c2.846,0,5.154-1.748,5.154-3.904h-10.309
									C124.543,96.525,126.852,98.273,129.697,98.273z"/>
							</g>
							<path fill="#492C1C" d="M128.635,49.442c-13.34,0-17.396,11.688-17.396,17.07c-4.84,6.726,0.436,12.742,4.168,14.855
								c0-1.252,0-1.708,0-3.309c0-4.349,4.137-8.376,10.348-7.705c5.566,0.601,9.07-2.546,12.033-7.894
								C141.441,55.299,136.879,49.442,128.635,49.442z"/>
							<path fill="#492C1C" d="M137.217,60.262c0,0,3.115,12.655,11.654,16.854c1.52-11.376,2.416-8.98,0-14.971
								c-2.418-5.992-11.654-10.441-11.654-10.441V60.262z"/>
						</g>
					</g>
				</g>
				<path fill="#F6A123" d="M152.031,116.598c-2.285-3.569-11.193-7.043-14.088-8.098c-0.17,4.46-3.838,8.025-8.342,8.025
					c-4.502,0-8.17-3.565-8.342-8.025c-2.895,1.055-11.803,4.528-14.088,8.098c-2.277,6.782-2.902,21.987-2.902,21.987h25.332
					h25.332C154.934,138.585,154.309,123.38,152.031,116.598z"/>
				<path fill="#F6A123" d="M154.934,138.585c0,0-0.625-15.205-2.902-21.987c-2.285-3.569-11.193-7.043-14.088-8.098
					c-0.17,4.46-3.838,8.025-8.342,8.025v22.06H154.934z"/>
				<path fill="#9AC31C" d="M118.508,109.565c0.834,5.377,5.482,9.492,11.094,9.492s10.26-4.115,11.094-9.492
					c-1.129-0.462-2.096-0.826-2.752-1.065c-0.17,4.46-3.838,8.025-8.342,8.025c-4.502,0-8.17-3.565-8.342-8.025
					C120.604,108.739,119.637,109.104,118.508,109.565z"/>
				<circle fill="#492C1C" cx="129.697" cy="46.626" r="7.52"/>
			</g>
		</g>
	</g>
	<g id="men_6">
		<g>
			<g>
				<defs>
					<circle id="SVGID_5_" cx="60.938" cy="84.619" r="54.119"/>
				</defs>
				<clipPath id="SVGID_6_">
					<use xlink:href="#SVGID_5_"  overflow="visible"/>
				</clipPath>
				<g clip-path="url(#SVGID_6_)">
					<polygon fill="#EFC095" points="68.861,115.646 61.125,134.425 53.012,115.646 53.012,98.268 68.861,98.268 					"/>
					<path fill="#EDF7FC" d="M53.012,108.625c0,0-16.992,2.202-19.217,4.52c-1.938,2.021-5.967,21.352-6.898,25.595
						c26.455,0,34.039,0,34.039,0v-10.193L53.012,108.625z"/>
					<path fill="#EDF7FC" d="M68.861,108.625c0,0,16.992,2.202,19.215,4.52c1.939,2.021,5.967,21.352,6.898,25.595
						c-26.455,0-34.039,0-34.039,0v-10.193L68.861,108.625z"/>
					<g>
						<path fill="#EFC095" d="M60.936,48.54c7.695,0,19.865,4.375,19.865,24.874c0,11.836-3.859,19.589-5.539,21.733
							c-1.547,1.975-11.252,6.106-15.334,6.106C59.928,80.537,60.936,48.54,60.936,48.54z"/>
						<path fill="#EFC095" d="M84.631,78.303c0.336-3.277-1.223-6.182-3.486-6.494c-2.266-0.311-4.375,2.094-4.715,5.368
							c-0.34,3.275,1.221,6.182,3.484,6.493C82.18,83.979,84.289,81.577,84.631,78.303z"/>
					</g>
					<g>
						<path fill="#EFC095" d="M60.936,48.54c-7.695,0-19.863,4.375-19.863,24.874c0,11.836,3.857,19.589,5.539,21.733
							c1.547,1.975,10.244,6.18,14.324,6.18C60.936,80.61,60.936,48.54,60.936,48.54z"/>
						<path fill="#EFC095" d="M37.242,78.303c-0.34-3.277,1.223-6.182,3.486-6.494c2.266-0.311,4.375,2.094,4.715,5.368
							c0.34,3.275-1.223,6.182-3.484,6.493C39.693,83.979,37.584,81.577,37.242,78.303z"/>
					</g>
					<path fill="#30353B" d="M43.717,78.662h1.371c0,0-0.834-5.341,1.613-7.062c0-2.669,0-3.449,0-3.449s-0.945-0.109-0.945-4.169
						c0-4.061,4.838-6.951,15.18-6.951c0-5.783,0-14.85,0-14.85S40.49,42.615,40.49,57.455c0,6.162,0,14.366,0,14.366
						s1.492-0.265,2.559,0.632C44.199,73.416,43.717,78.662,43.717,78.662z"/>
					<path fill="#30353B" d="M78.156,78.662h-1.371c0,0,0.832-5.341-1.613-7.062c0-2.669,0-3.449,0-3.449s0.945-0.109,0.945-4.169
						c0-4.061-6.543-6.923-16.887-6.923c0-5.782,1.705-14.878,1.705-14.878s20.445-0.467,20.445,14.373c0,6.163,0,15.268,0,15.268
						s-1.492-0.265-2.559,0.632C77.674,73.416,78.156,78.662,78.156,78.662z"/>
					<g>
						<polygon fill="#A1B3BF" points="60.936,128.546 55.549,110.143 53.562,118.437 						"/>
						<polygon fill="#FFFFFF" points="52.789,106.719 55.617,110.394 53.562,118.437 49.221,112.578 						"/>
					</g>
					<g>
						<polygon fill="#A1B3BF" points="60.938,128.546 65.814,109.926 68.312,118.437 						"/>
						<polygon fill="#FFFFFF" points="69.082,106.719 65.748,110.177 68.312,118.437 73.031,112.578 						"/>
					</g>
					<path fill="#FFFFFF" d="M60.936,92.499c3.586,0,6.494-1.186,6.494-2.647H54.441C54.441,91.313,57.348,92.499,60.936,92.499z"/>
				</g>
			</g>
		</g>
	</g>
	<g>
		<defs>
			<circle id="SVGID_7_" cx="160.677" cy="135.075" r="52.946"/>
		</defs>
		<clipPath id="SVGID_8_">
			<use xlink:href="#SVGID_7_"  overflow="visible"/>
		</clipPath>
		<g clip-path="url(#SVGID_8_)">
			<rect x="153.121" y="148.429" fill="#EAC0A7" width="15.506" height="17.002"/>
			<path fill="#9AC31C" d="M168.529,157.475h2.643c4.928,1.27,10.318,2.169,13.904,6.324c2.236,2.588,6.119,24.223,6.119,24.223
				h-9.393l-22.699-0.024l-0.949-19.892l0.479-4.312C167.139,165.591,168.529,160.818,168.529,157.475z"/>
			<path fill="#9AC31C" d="M153.023,157.475h-2.641c-4.926,1.27-10.32,2.169-13.908,6.324c-2.236,2.588-6.117,24.223-6.117,24.223
				h9.391h21.027v-19.814v-4.68C156.494,163.527,153.023,160.818,153.023,157.475z"/>
			<g>
				<path fill="#EAC0A7" d="M160.873,99.778c7.527,0,19.434,4.28,19.434,24.334c0,11.58-3.775,19.165-5.42,21.264
					c-1.514,1.931-11.055,5.637-15.047,5.637C159.84,130.745,160.873,99.778,160.873,99.778z"/>
				<path fill="#EAC0A7" d="M184.053,128.895c0.332-3.204-1.195-6.048-3.41-6.352s-4.279,2.047-4.611,5.252
					c-0.332,3.203,1.195,6.046,3.41,6.351C181.656,134.448,183.719,132.097,184.053,128.895z"/>
			</g>
			<g>
				<path fill="#EAC0A7" d="M160.873,99.778c-7.527,0-19.434,4.28-19.434,24.334c0,11.58,3.775,19.165,5.42,21.264
					c1.514,1.931,10.021,6.045,14.014,6.045C160.873,131.152,160.873,99.778,160.873,99.778z"/>
				<path fill="#EAC0A7" d="M137.695,128.895c-0.332-3.204,1.193-6.048,3.408-6.352s4.279,2.047,4.611,5.252
					c0.334,3.203-1.193,6.046-3.41,6.351C140.092,134.448,138.027,132.097,137.695,128.895z"/>
			</g>
			<path fill="#FFFFFF" d="M160.873,143.855c3.51,0,6.354-1.16,6.354-2.589H154.52C154.52,142.695,157.365,143.855,160.873,143.855z
				"/>
			<path fill="#553829" d="M176.535,125.702c0.811-2.067,2.414-3.392,4.107-3.159c0.004,0.001,0.01,0.001,0.014,0.002
				c0.768-2.379,1.045-5.206-0.012-8.208c-5.605-15.961,0.762-18.81,0.762-18.81s-6.199-0.277-11.008,3.703
				c3.316-5.141,4.809-6.469,4.809-6.469s-6.965-1.492-14.428,6.137c1.658-4.146,3.648-6.254,3.648-6.254
				s-15.59,0.117-21.229,11.396c-3.213,6.428-3.463,13.392-2.684,18.655c0.189-0.069,0.385-0.125,0.588-0.152
				c0.736-0.102,1.453,0.095,2.096,0.514c0-2.432,0-4.583,0-4.92c2.986-1.327,6.137-2.986,5.971-9.619c6.965,0,10.779,0,10.779,0
				h11.111c0,0-0.496,7.463,5.475,9.287C176.535,120.916,176.535,123.663,176.535,125.702z"/>
			<path fill="#39A3D8" d="M160.779,165.491c5.738,0,10.393-3.589,10.393-8.017h-2.662c0,3.337-3.459,6.044-7.73,6.052
				c-4.273-0.008-7.732-2.715-7.732-6.052h-2.664C150.383,161.902,155.037,165.491,160.779,165.491z"/>
		</g>
	</g>
	<g id="men_2_5_">
		<g>
			<defs>
				<path id="SVGID_9_" d="M155.195,134.354c0-63.06-26.502-59.467-59.463-59.467c-32.846,0-59.467,26.624-59.467,59.467
					c0,32.84,26.621,59.462,59.467,59.462C128.572,193.816,155.195,167.194,155.195,134.354z"/>
			</defs>
			<clipPath id="SVGID_10_">
				<use xlink:href="#SVGID_9_"  overflow="visible"/>
			</clipPath>
			<g clip-path="url(#SVGID_10_)">
				<rect x="87.023" y="149.353" fill="#F2D7BC" width="17.414" height="19.092"/>
				<path fill="#C0D0D8" d="M87.023,160.808c0,0-18.67,2.345-21.113,4.889c-2.129,2.217-6.559,23.459-7.58,28.12
					c29.068,0,37.398,0,37.398,0l-0.355-27.019L87.023,160.808z"/>
				<path fill="#C0D0D8" d="M104.596,160.928c0,0,18.514,2.225,20.959,4.769c2.131,2.217,6.555,23.459,7.576,28.12
					c-29.066,0-38.238-0.008-38.238-0.008l0.48-27.011L104.596,160.928z"/>
				<g>
					<path fill="#F2D7BC" d="M94.16,94.975c8.451,0,23.398,4.542,23.398,27.065c0,13.008-4.24,21.525-6.088,23.884
						c-1.699,2.166-12.879,7.337-16.881,6.699C94.59,129.865,94.16,94.975,94.16,94.975z"/>
					<path fill="#F2D7BC" d="M121.766,127.412c0.373-3.598-1.346-6.795-3.832-7.135c-2.486-0.343-4.809,2.3-5.176,5.9
						c-0.375,3.598,1.336,6.79,3.826,7.131C119.07,133.648,121.391,131.013,121.766,127.412z"/>
				</g>
				<g>
					<path fill="#F2D7BC" d="M95.732,94.71c-8.455,0-21.83,4.807-21.83,27.33c0,13.008,4.242,21.525,6.09,23.884
						c1.699,2.166,11.258,6.782,15.74,6.782C95.732,129.949,95.732,94.71,95.732,94.71z"/>
					<path fill="#F2D7BC" d="M69.699,127.412c-0.373-3.598,1.342-6.795,3.83-7.135c2.49-0.343,4.807,2.3,5.18,5.9
						c0.373,3.598-1.344,6.79-3.83,7.131C72.393,133.648,70.074,131.013,69.699,127.412z"/>
				</g>
				<polygon fill="#FFFFFF" points="88.9,203.435 80.062,199.877 77.885,202.094 82.281,211.844 				"/>
				<polygon fill="#FFFFFF" points="88.9,203.435 97.744,199.877 99.918,202.094 95.527,211.844 				"/>
				<rect x="76.578" y="184.123" fill="#8097A3" width="11.029" height="2.434"/>
				<rect x="103.861" y="184.123" fill="#8097A3" width="11.033" height="2.434"/>
				<path fill="#8C603D" d="M76.809,127.806h1.508c0,0-0.914-5.864,1.775-7.759c0-2.933,0-3.79,0-3.79s-1.041-0.12-1.041-4.581
					s5.316-7.638,16.682-7.638c0-6.354,0-13.686,0-13.686S73.27,92.778,73.27,109.079c0,6.772,0,11.213,0,11.213
					s1.637-0.291,2.807,0.693C77.338,122.044,76.809,127.806,76.809,127.806z"/>
				<path fill="#8C603D" d="M114.438,127.806h-1.506c0,0,0.916-5.864-1.77-7.759c0-2.933,0-3.79,0-3.79s1.037-0.12,1.037-4.581
					s-5.791-7.634-17.156-7.634c0-6.354,0.211-13.627,0.211-13.627s21.619-0.223,22.725,18.664c0,6.772,0,11.213,0,11.213
					s-1.635-0.291-2.807,0.693C113.91,122.044,114.438,127.806,114.438,127.806z"/>
				<path fill="#FFFFFF" d="M95.732,143.01c3.939,0,7.137-1.304,7.137-2.905H88.598C88.598,141.706,91.791,143.01,95.732,143.01z"/>
			</g>
		</g>
	</g>
	<g id="women_5">
		<g>
			<defs>
				<circle id="SVGID_11_" cx="35.588" cy="137.087" r="50.242"/>
			</defs>
			<clipPath id="SVGID_12_">
				<use xlink:href="#SVGID_11_"  overflow="visible"/>
			</clipPath>
			<g clip-path="url(#SVGID_12_)">
				<g>
					<g>
						<g>
							<circle fill="#461913" cx="35.681" cy="119.431" r="21.989"/>
							<polygon fill="#EFDCBD" points="42.947,166.432 35.498,187.328 28.234,166.432 28.234,150.297 42.947,150.297 							"/>
							<g>
								<path fill="#EFDCBD" d="M35.592,105.582c-7.145,0-18.443,4.062-18.443,23.092c0,10.988,4.283,16.169,5.844,18.159
									c1.438,1.833,8.811,7.755,12.6,7.755C35.592,135.354,35.592,105.582,35.592,105.582z"/>
								<path fill="#EFDCBD" d="M13.596,133.212c-0.314-3.041,1.135-5.739,3.234-6.028c2.104-0.288,4.062,1.944,4.377,4.985
									c0.316,3.039-1.133,5.737-3.234,6.025C15.869,138.482,13.91,136.252,13.596,133.212z"/>
							</g>
							<g>
								<g>
									<g>
										<path fill="#EFDCBD" d="M35.533,105.582c7.145,0,18.441,4.062,18.441,23.092c0,10.988-4.283,16.169-5.844,18.159
											c-1.439,1.833-10.037,7.571-13.826,7.571C34.305,135.171,35.533,105.582,35.533,105.582z"/>
									</g>
									<g>
										<path fill="#EFDCBD" d="M57.584,133.212c0.318-3.041-1.133-5.739-3.232-6.028c-2.105-0.288-4.062,1.944-4.379,4.985
											c-0.314,3.039,1.135,5.737,3.236,6.025C55.312,138.482,57.271,136.252,57.584,133.212z"/>
									</g>
								</g>
							</g>
							<path fill="#EAC8AD" d="M35.588,187.419v-20.097c0,0-5.488-1.36-6.699-5.806c-0.58-2.138-0.564-3.854-0.564-3.854
								s-12.002,4.055-14.682,8.241c-2.229,6.638-2.842,21.515-2.842,21.515H35.588z"/>
							<path fill="#EAC8AD" d="M35.588,187.419v-20.097c0,0,5.49-1.36,6.699-5.806c0.582-2.138,0.564-3.854,0.564-3.854
								s12.004,4.055,14.682,8.241c2.229,6.638,2.842,21.515,2.842,21.515H35.588z"/>
							<path fill="#FFFFFF" d="M35.682,147.978c2.785,0,5.043-1.712,5.043-3.82H30.639
								C30.639,146.266,32.896,147.978,35.682,147.978z"/>
						</g>
						<path fill="#461913" d="M34.643,100.196c-13.055,0-17.023,11.438-17.023,16.704c-4.732,6.579,0.428,12.467,4.082,14.535
							c0-1.225,0-1.673,0-3.239c0-4.255,4.045-8.194,10.123-7.539c5.445,0.589,8.875-2.489,11.771-7.723
							C47.172,105.927,42.709,100.196,34.643,100.196z"/>
						<path fill="#461913" d="M43.037,110.783c0,0,3.051,12.383,11.404,16.491c1.486-11.131,2.365-8.786,0-14.648
							c-2.365-5.861-11.404-10.216-11.404-10.216V110.783z"/>
					</g>
					<path fill="#39A3D8" d="M36.99,187.311l-1.402-26.619l-7.264-3.028c0,0-12.002,4.055-14.682,8.241
						c-2.229,6.638-2.842,21.515-2.842,21.515L36.99,187.311z"/>
					<path fill="#54B6DD" d="M35.588,187.331v-26.728l7.264-3.028c0,0,12.004,4.054,14.682,8.24
						c2.229,6.638,2.842,21.516,2.842,21.516H35.588z"/>
				</g>
				<path fill="#461913" d="M31.553,101.157c0,0-11.164-17.25-24.879-3.853c-13.713,13.4,2.139,38.213-6.125,42.121
					c9.018-1.166,11.242-13.935,10.359-25.172c-0.783-9.937,7.926-14.738,14.707-10.668
					C28.463,105.294,31.553,101.157,31.553,101.157z"/>
				<polygon fill="#FFFFFF" points="35.588,160.667 28.117,157.663 26.277,159.531 29.994,167.774 				"/>
				<polygon fill="#FFFFFF" points="35.588,160.667 43.059,157.663 44.898,159.531 41.182,167.774 				"/>
			</g>
		</g>
	</g>
	<g>
		<path fill="#30353B" d="M61.014,86.504c0,0,1.113-0.668,1.908-0.572c0,0,0.986,0,1.781,0.731c0,0,1.432,1.24,2.195,1.113
			c0,0,1.24,0.095,0.635-0.923c0,0-0.318-0.668-1.018-0.445c0,0,0.859-0.731,1.494-0.031c0,0,1.719,1.972-1.303,3.148
			c0,0-3.275,1.177-5.693-1.304C61.014,88.222,59.934,87.14,61.014,86.504z"/>
		<path fill="#30353B" d="M60.859,86.504c0,0-1.111-0.668-1.906-0.572c0,0-0.986,0-1.783,0.731c0,0-1.43,1.24-2.193,1.113
			c0,0-1.24,0.095-0.637-0.923c0,0,0.318-0.668,1.02-0.445c0,0-0.859-0.731-1.496-0.031c0,0-1.717,1.972,1.305,3.148
			c0,0,3.275,1.177,5.691-1.304C60.859,88.222,61.941,87.14,60.859,86.504z"/>
	</g>
</g>
</svg>
